# xmcd
#
# Track frame offsets: 
#        183
#        13430
#        26573
#        36673
#        51740
#        62705
#        73073
#        85148
#        109303
#        120290
#        132773
#
# Disc length: 1937 seconds
#
# Revision: 0
# Processed by: cddbd v1.4PL0 Copyright (c) Steve Scherf et al.
# Submitted via: ExactAudioCopy v0.90b4
#
DISCID=a3078f0b
DTITLE=Red Sovine - Christmas With Red Sovine
DYEAR=1900
DGENRE=Country
TTITLE0=Blue Christmas
TTITLE1=That Night In Bethlehem
TTITLE2=A Bed For Baby Jesus
TTITLE3=White Christmas
TTITLE4=Christmas Is For Kids
TTITLE5=The Legend Of A Christmas Rose
TTITLE6=Santa Is A Texas Cowboy
TTITLE7=Faith In Santa
TTITLE8=Rudolp The Red Nosed Reindeer
TTITLE9=What Does Christmas Look Like
TTITLE10=Here It Is Christmas
EXTD=
EXTT0=
EXTT1=
EXTT2=
EXTT3=
EXTT4=
EXTT5=
EXTT6=
EXTT7=
EXTT8=
EXTT9=
EXTT10=
PLAYORDER=
